<svg width="70" height="65" viewBox="0 0 70 65" fill="none" xmlns="http://www.w3.org/2000/svg">
<path d="M65.378 64.5098H3.53322C1.58487 64.5098 0 62.9038 0 60.9294V31.3056C0 29.3313 1.58487 27.7252 3.53322 27.7252H65.378C67.3264 27.7252 68.9112 29.3313 68.9112 31.3056V60.9294C68.9112 62.9038 67.3264 64.5098 65.378 64.5098ZM3.53322 28.9277C2.23967 28.9277 1.18665 29.9948 1.18665 31.3056V60.9294C1.18665 62.2402 2.23967 63.3073 3.53322 63.3073H65.378C66.6716 63.3073 67.7246 62.2402 67.7246 60.9294V31.3056C67.7246 29.9948 66.6716 28.9277 65.378 28.9277H3.53322Z" fill="white"/>
<path d="M11.65 32.5569C13.5529 32.5569 14.8919 33.624 14.8919 35.7581C14.8919 37.1177 14.3494 38.0304 13.4487 38.4936C14.5872 38.889 15.2982 39.8531 15.2982 41.4023C15.2982 43.5365 13.9565 44.6036 12.0376 44.6036H5.59383C5.4308 44.6036 5.29716 44.4681 5.29716 44.3029V32.8575C5.29716 32.6923 5.4308 32.5569 5.59383 32.5569H11.6473H11.65ZM6.98092 37.8923H11.5645C12.3636 37.8923 13.144 37.2396 13.144 36.3079V35.8096C13.144 34.9158 12.3289 34.2442 11.5645 34.209H6.98092V37.8923ZM6.98092 42.9515H11.9734C12.7886 42.9163 13.569 42.2988 13.569 41.3508V40.8525C13.569 39.975 12.7538 39.2871 11.9734 39.2681H6.98092V42.9515Z" fill="white"/>
<path d="M26.6595 44.6036H24.6791C24.6791 44.6036 24.6738 44.6036 24.6711 44.5981L23.2626 40.4056C23.0916 40.4056 22.9232 40.4219 22.7521 40.4219H18.5748V44.5954C18.5748 44.5954 18.5721 44.6036 18.5668 44.6036H16.9017C16.9017 44.6036 16.8937 44.6008 16.8937 44.5954V32.565C16.8937 32.565 16.8964 32.5569 16.9017 32.5569H23.4069C25.2724 32.5569 26.8065 34.0411 26.9001 35.9288C27.0097 38.1577 26.3843 39.5227 24.8074 40.0238C25.7589 42.6563 26.2346 43.1736 26.6595 43.1898V44.6008V44.6036ZM18.5748 34.209V38.7698H23.1771C24.5027 38.7536 25.2644 37.9952 25.2644 36.6871V36.1536C25.2644 34.9998 24.4332 34.2279 23.1771 34.209H18.5748Z" fill="white"/>
<path d="M32.8707 32.5569H35.6583C35.7893 32.5569 35.9042 32.6435 35.9416 32.7708L39.3786 44.2163C39.4374 44.4086 39.2931 44.6036 39.0953 44.6036H37.7857C37.6521 44.6036 37.5345 44.5142 37.4998 44.3815L36.567 40.9013C36.5323 40.7713 36.4147 40.6792 36.281 40.6792H32.2507C32.1171 40.6792 31.9995 40.7686 31.9647 40.9013L31.032 44.3815C30.9972 44.5115 30.8796 44.6036 30.746 44.6036H29.4524C29.2547 44.6036 29.1103 44.4086 29.1691 44.2163L32.5901 32.7708C32.6275 32.6435 32.7425 32.5569 32.8734 32.5569H32.8707ZM35.979 38.6479L34.8485 34.4311C34.8138 34.3011 34.6962 34.209 34.5625 34.209H33.9639C33.8302 34.209 33.7126 34.2983 33.6779 34.4311L32.5474 38.6479C32.4966 38.8375 32.6382 39.0271 32.8333 39.0271H35.693C35.8882 39.0271 36.0298 38.8402 35.979 38.6479Z" fill="white"/>
<path d="M41.9256 32.5569H43.1925C43.286 32.5569 43.3769 32.6029 43.433 32.6815L49.7297 41.47H49.8152V32.8575C49.8152 32.6923 49.9489 32.5569 50.1119 32.5569H51.4562C51.6193 32.5569 51.7529 32.6923 51.7529 32.8575V44.3029C51.7529 44.4681 51.6193 44.6036 51.4562 44.6036H49.9836C49.8901 44.6036 49.7992 44.5575 49.7458 44.4817L43.6361 36.0181H43.5506V44.3029C43.5506 44.4681 43.417 44.6036 43.2539 44.6036H41.9283C41.7653 44.6036 41.6316 44.4681 41.6316 44.3029V32.8575C41.6316 32.6923 41.7653 32.5569 41.9283 32.5569H41.9256Z" fill="white"/>
<path d="M53.8884 44.3029V32.8575C53.8884 32.6923 54.022 32.5569 54.185 32.5569H59.2042C62.2109 32.5569 63.6194 34.4852 63.6194 38.5613C63.6194 42.6373 62.2109 44.5846 59.2042 44.5846H55.5694V44.6008H54.185C54.022 44.6008 53.8884 44.4654 53.8884 44.3002V44.3029ZM58.8274 42.9325C60.7971 42.9325 61.6978 41.7977 61.7138 39.4225V37.719C61.6978 35.3438 60.7971 34.209 58.8274 34.209H55.8634C55.7004 34.209 55.5668 34.3444 55.5668 34.5096V42.6319C55.5668 42.7971 55.7004 42.9325 55.8634 42.9325H58.8274Z" fill="white"/>
<path d="M5.1769 59.8921V48.1325C5.1769 47.9673 5.31053 47.8319 5.47356 47.8319H10.6317C13.716 47.8319 15.1619 49.809 15.1619 53.9933C15.1619 58.1777 13.716 60.1738 10.6317 60.1738H6.90342V60.1927H5.47356C5.31053 60.1927 5.1769 60.0573 5.1769 59.8921ZM10.2469 58.4783C12.2674 58.4783 13.1921 57.3138 13.2082 54.8763V53.1294C13.1921 50.6919 12.2674 49.5273 10.2469 49.5273H7.19741C7.03438 49.5273 6.90075 49.6627 6.90075 49.8279V58.1804C6.90075 58.3456 7.03438 58.4811 7.19741 58.4811H10.2469V58.4783Z" fill="white"/>
<path d="M16.8002 59.8921V48.1325C16.8002 47.9673 16.9338 47.8319 17.0968 47.8319H24.7299C24.8929 47.8319 25.0266 47.9673 25.0266 48.1325V49.2267C25.0266 49.3919 24.8929 49.5273 24.7299 49.5273H18.8234C18.6603 49.5273 18.5267 49.6627 18.5267 49.8279V53.0075C18.5267 53.1727 18.6603 53.3081 18.8234 53.3081H23.7731C23.9361 53.3081 24.0698 53.4436 24.0698 53.6088V54.4213C24.0698 54.5865 23.9361 54.7219 23.7731 54.7219H18.8234C18.6603 54.7219 18.5267 54.8573 18.5267 55.0225V58.2021C18.5267 58.3673 18.6603 58.5027 18.8234 58.5027H24.7299C24.8929 58.5027 25.0266 58.6381 25.0266 58.8033V59.8975C25.0266 60.0627 24.8929 60.1981 24.7299 60.1981H17.0968C16.9338 60.1981 16.8002 60.0627 16.8002 59.8975V59.8921Z" fill="white"/>
<path d="M27.4987 50.7813C27.4987 49.0506 28.8057 47.8319 31.0186 47.8319H32.2908C32.4538 47.8319 32.5874 47.9673 32.5874 48.1325V49.2321C32.5874 49.3973 32.4565 49.53 32.2935 49.5327L31.0534 49.5463C29.9389 49.5625 29.399 50.0771 29.399 50.765C29.399 52.7421 32.9883 54.1369 32.9883 56.875C32.9883 58.6056 31.6814 60.1954 28.7201 60.1954H27.5175C27.3544 60.1954 27.2208 60.06 27.2208 59.8948V58.7952C27.2208 58.63 27.3518 58.4973 27.5148 58.4946L28.8244 58.4811C30.3585 58.4621 31.0908 57.8988 31.0908 56.7694C31.0908 54.5621 27.5014 53.2729 27.5014 50.784L27.4987 50.7813Z" fill="white"/>
<path d="M35.4819 47.8319H36.6151C36.7781 47.8319 36.9118 47.9673 36.9118 48.1325V59.8921C36.9118 60.0573 36.7781 60.1927 36.6151 60.1927H35.4819C35.3189 60.1927 35.1852 60.0573 35.1852 59.8921V48.1325C35.1852 47.9673 35.3189 47.8319 35.4819 47.8319Z" fill="white"/>
<path d="M50.1493 60.1927C49.9943 60.1927 49.866 60.0736 49.8553 59.9165L49.6148 56.8371H49.4571C48.9867 59.2394 47.0357 60.3688 44.6491 60.3688C41.1987 60.3688 38.8975 57.8256 38.8975 54.0123C38.8975 50.199 41.3029 47.6558 44.9617 47.6558C48.2678 47.6558 50.6438 49.79 51.0126 53.0644C51.0313 53.2404 50.8923 53.3921 50.7159 53.3921H49.5747C49.4277 53.3921 49.3048 53.2811 49.2834 53.1321C48.9306 50.8598 47.2442 49.4027 44.9617 49.4027C42.3319 49.4027 40.6241 51.239 40.6241 54.0123C40.6241 56.7856 42.3319 58.6733 44.9617 58.6733C47.2121 58.6733 48.8638 57.2136 49.262 55.0063C49.2887 54.8627 49.409 54.7544 49.5533 54.7544H50.7827C50.9458 54.7544 51.0794 54.8898 51.0794 55.055V59.8948C51.0794 60.06 50.9458 60.1954 50.7827 60.1954H50.1493V60.1927Z" fill="white"/>
<path d="M53.0117 47.8319H54.324C54.4175 47.8319 54.5084 47.8779 54.5645 47.9565L61.027 56.9806H61.1152V48.1352C61.1152 47.97 61.2488 47.8346 61.4118 47.8346H62.8069C62.97 47.8346 63.1036 47.97 63.1036 48.1352V59.8948C63.1036 60.06 62.97 60.1954 62.8069 60.1954H61.2835C61.19 60.1954 61.0991 60.1494 61.0457 60.0736L54.7757 51.3852H54.6875V59.8975C54.6875 60.0627 54.5538 60.1981 54.3908 60.1981H53.0144C52.8514 60.1981 52.7177 60.0627 52.7177 59.8975V48.1379C52.7177 47.9727 52.8514 47.8373 53.0144 47.8373L53.0117 47.8319Z" fill="white"/>
<path d="M14.5739 23.3594V0.755631C14.5739 0.538965 14.7476 0.360214 14.9641 0.360214H18.7432C18.957 0.360214 19.1334 0.536256 19.1334 0.755631V23.3594C19.1334 23.576 18.9597 23.7548 18.7432 23.7548H14.9641C14.7503 23.7548 14.5739 23.5788 14.5739 23.3594Z" fill="white"/>
<path d="M21.4586 23.3594V0.755631C21.4586 0.538965 21.6323 0.360214 21.8488 0.360214H25.6279C25.8417 0.360214 26.0181 0.536256 26.0181 0.755631V19.0342C26.0181 19.2508 26.1918 19.4296 26.4083 19.4296H30.3825C30.5963 19.4296 30.7727 19.6056 30.7727 19.825V23.3621C30.7727 23.5788 30.599 23.7575 30.3825 23.7575H21.8488C21.635 23.7575 21.4586 23.5815 21.4586 23.3621V23.3594Z" fill="white"/>
<path d="M33.8596 0.362915C34.0574 0.362915 34.2231 0.511874 34.2472 0.709582L36.0298 15.4402C36.0565 15.5838 36.0806 15.7815 36.1073 16.0306C36.134 16.2798 36.1554 16.5398 36.1741 16.8079C36.1928 17.076 36.2089 17.309 36.2222 17.5067C36.249 17.8723 36.2677 18.246 36.281 18.6279C36.2944 19.0071 36.3078 19.3808 36.3211 19.7492V20.6402C36.3211 20.735 36.396 20.8108 36.4895 20.8108H36.5403C36.6338 20.8108 36.7087 20.735 36.7087 20.6402C36.7087 20.4127 36.7113 20.2123 36.7167 20.0444C36.722 19.8358 36.73 19.6246 36.7354 19.416C36.7407 19.2075 36.7514 18.9448 36.7648 18.6306C36.7648 18.2894 36.7781 17.9237 36.8022 17.531C36.8289 17.1383 36.861 16.77 36.8984 16.4315C36.9118 16.2608 36.9251 16.0902 36.9385 15.9196C36.9519 15.7625 36.9706 15.6054 36.9973 15.4483L38.7799 0.717707C38.804 0.519998 38.9697 0.37104 39.1675 0.37104H42.9279C43.1657 0.37104 43.3502 0.587707 43.3127 0.82604L39.8249 23.4298C39.7955 23.6221 39.6325 23.7629 39.4401 23.7629H33.5897C33.3973 23.7629 33.2342 23.6221 33.2048 23.4298L29.717 0.82604C29.6796 0.587707 29.8614 0.37104 30.1019 0.37104H33.8623L33.8596 0.362915Z" fill="white"/>
<path d="M68.5023 6.45667C68.5023 7.62396 68.2618 8.61792 67.7834 9.44396C67.5642 9.83667 67.2943 10.1833 66.9789 10.4867C66.6609 10.7873 66.2707 11.0446 65.8056 11.2531C65.4101 11.4183 64.9878 11.5321 64.5388 11.589C64.4533 11.5998 64.3918 11.6702 64.3918 11.7569C64.3918 11.849 64.464 11.9194 64.5522 11.9275C64.9664 11.9573 65.3834 12.1063 65.8056 12.3744C66.2573 12.675 66.6128 13.0758 66.872 13.5742C66.9362 13.7042 66.9923 13.8369 67.0377 13.9669C67.0832 14.0969 67.1259 14.2296 67.1633 14.3596L69.3522 23.2673C69.4137 23.5165 69.2266 23.7575 68.9754 23.7575H65.2123C65.0386 23.7575 64.8836 23.6383 64.8382 23.4677L62.2991 14.1592C62.2537 13.9885 62.0987 13.8694 61.925 13.8694H61.1365C60.9227 13.8694 60.7463 14.0454 60.7463 14.2648V23.3648C60.7463 23.5815 60.5726 23.7602 60.3561 23.7602H56.577C56.3632 23.7602 56.1868 23.5842 56.1868 23.3648V0.755631C56.1868 0.538964 56.3605 0.360214 56.577 0.360214H62.978C63.598 0.360214 64.1967 0.455006 64.7713 0.64459C65.346 0.834173 65.8671 1.11313 66.3322 1.47876C66.7972 1.85792 67.1874 2.29126 67.5054 2.77605C67.8235 3.26084 68.072 3.81876 68.2511 4.44709C68.4195 5.08896 68.5023 5.75792 68.5023 6.45126V6.45667ZM60.741 9.14876C60.741 9.36542 60.9147 9.54417 61.1312 9.54417H61.8101C62.0559 9.54417 62.2911 9.51167 62.5183 9.44667C62.7455 9.38167 62.9539 9.27605 63.149 9.13251C63.4858 8.85626 63.7237 8.46355 63.868 7.95167C63.9188 7.72959 63.9455 7.45334 63.9455 7.12563C63.9455 6.37813 63.7584 5.78501 63.3842 5.34626C63.0101 4.90751 62.4862 4.68813 61.8127 4.68813H61.1339C60.9201 4.68813 60.7437 4.86417 60.7437 5.08355V9.15146L60.741 9.14876Z" fill="white"/>
<path d="M53.9472 4.68542H49.1899C48.9761 4.68542 48.7997 4.86146 48.7997 5.08084V10.8198C48.7997 11.0365 48.9734 11.2152 49.1899 11.2152H53.9472C54.161 11.2152 54.3374 11.3913 54.3374 11.6106V14.6602C54.3374 14.7658 54.2946 14.8688 54.2198 14.9419L49.8019 19.2915H53.9472C54.161 19.2915 54.3374 19.4675 54.3374 19.6869V23.3594C54.3374 23.576 54.1636 23.7548 53.9472 23.7548H45.3546C45.1408 23.7548 44.9644 23.5788 44.9644 23.3594V18.5954C44.9644 18.4844 45.0099 18.3815 45.09 18.3056L48.7997 14.8254H45.3546C45.1408 14.8254 44.9644 14.6494 44.9644 14.43V0.755631C44.9644 0.538965 45.1382 0.360214 45.3546 0.360214H53.9472C54.161 0.360214 54.3374 0.536256 54.3374 0.755631V4.29271C54.3374 4.50938 54.1636 4.68813 53.9472 4.68813V4.68542Z" fill="white"/>
<path d="M7.96713 7.31521C7.75332 7.31521 7.57693 7.13917 7.57693 6.91979V5.92042C7.57693 4.63125 7.15198 3.98667 6.29941 3.98667C5.90653 3.98667 5.59918 4.13833 5.37468 4.44438C5.15285 4.75042 5.0406 5.18917 5.0406 5.76062C5.0406 5.93396 5.05663 6.11812 5.0887 6.31854C5.12078 6.51896 5.20363 6.73021 5.33459 6.955C5.43882 7.15542 5.59651 7.39104 5.80764 7.66187C6.01611 7.93542 6.2807 8.2225 6.5934 8.52854C6.75108 8.70187 6.92748 8.88063 7.12525 9.0675C7.30967 9.26792 7.51813 9.47375 7.75332 9.685C8.46157 10.335 9.1137 10.9742 9.70969 11.5971C10.3057 12.2227 10.7948 12.7725 11.1743 13.2519C11.5538 13.7556 11.8558 14.2404 12.0776 14.7062C12.2995 15.1721 12.4652 15.6487 12.5694 16.1417C12.6229 16.3935 12.6576 16.6535 12.6763 16.919C12.695 17.1844 12.7057 17.4633 12.7057 17.7558C12.7057 18.5521 12.6202 19.286 12.4491 19.9577C12.2781 20.6294 12.0162 21.2306 11.6634 21.7615C11.3347 22.2652 10.907 22.6985 10.3752 23.056C9.84332 23.4135 9.26336 23.6735 8.63529 23.8333C7.94041 24.0202 7.19207 24.1123 6.39295 24.1123C4.78135 24.1123 3.46909 23.7602 2.4615 23.056C1.46461 22.3654 0.801797 21.3362 0.475735 19.9685C0.304687 19.305 0.219162 18.5412 0.219162 17.6773V15.9792C0.219162 15.7625 0.392884 15.5837 0.609367 15.5837H4.15596C4.36977 15.5837 4.54616 15.7598 4.54616 15.9792V17.6962C4.54616 18.4654 4.70385 19.064 5.01922 19.4892C5.30786 19.9144 5.75419 20.1256 6.35553 20.1256C6.564 20.1256 6.76979 20.0958 6.96489 20.0362C7.16267 19.9767 7.3257 19.8792 7.45666 19.7465C7.57426 19.6273 7.68651 19.4783 7.79074 19.2969C7.8923 19.1235 7.96981 18.9096 8.02326 18.6523C8.02593 18.636 8.0286 18.6225 8.03128 18.6062C8.04464 18.4925 8.05533 18.3706 8.06869 18.2406C8.08206 18.1025 8.0874 17.959 8.0874 17.8127C8.0874 17.5337 8.06869 17.2927 8.0286 17.0842C7.98851 16.8783 7.91101 16.6562 7.79341 16.4179C7.66245 16.1796 7.48071 15.9331 7.25354 15.6812C7.02369 15.4294 6.7591 15.1504 6.45709 14.8444C6.28605 14.6846 6.09896 14.514 5.89584 14.3271C5.69272 14.1402 5.47356 13.9425 5.23837 13.7285C4.5034 13.065 3.86464 12.4556 3.32209 11.9058C2.77688 11.356 2.31718 10.8198 1.93499 10.3025C1.55548 9.79875 1.25615 9.30854 1.03966 8.83729C0.823178 8.36604 0.66282 7.88396 0.558587 7.39375C0.505134 7.15542 0.47039 6.90354 0.451682 6.63542C0.432973 6.37 0.422282 6.09646 0.422282 5.8175C0.422282 5.08625 0.497116 4.40646 0.649457 3.77542C0.799124 3.14437 1.03966 2.58917 1.3684 2.1125C2.00983 1.18354 2.94258 0.557917 4.1613 0.238334C4.76532 0.078542 5.45218 0 6.22457 0C7.69185 0 8.89988 0.297917 9.84332 0.896458C10.1587 1.09687 10.4928 1.40833 10.8456 1.83354C11.1984 2.25875 11.4736 2.83562 11.6714 3.56687C11.8291 4.16542 11.9066 4.82896 11.9066 5.56021V6.91979C11.9066 7.13646 11.7329 7.31521 11.5164 7.31521H7.96981H7.96713Z" fill="white"/>
</svg>
